# xmcd
#
# Track frame offsets:
#	150
#	11042
#	25742
#	39892
#	53322
#	66912
#	82885
#	100997
#	115607
#	130647
#	147805
#	163700
#	182322
#	194912
#	206737
#
# Disc length: 2966
#
# Revision: 4
# Processed by: cddbd v1.5.1PL0 Copyright (c) Steve Scherf et al.
# Submitted via: audiograbber 1.81.02
# Normalized: r3:DSETVAR1
#
DISCID=bc0b940f
DTITLE=Various Artist - Country Heat 4
DYEAR=1994
DGENRE=Country
TTITLE0=Alan Jackson - She's Got The Rhythm ( And I Got The Blues)
TTITLE1=Shenandoah - Janie Baker's Love Slave
TTITLE2=Michelle Wright - If I'm Ever Over You
TTITLE3=Brooks and Dunn - Hard Workin' Man
TTITLE4=John Anderson - Money In The Bank
TTITLE5=Doug Supernaw - Reno
TTITLE6=Clint Black - No Time To Kill
TTITLE7=Pam Tillis - Cleopatra, Queen Of Denial
TTITLE8=Alabama - Reckless
TTITLE9=Lorrie Morgan - Half Enough
TTITLE10=Radney Foster - Nobody Wins
TTITLE11=Charlie Major - I'm Gonna Drive You Out Of My Mind
TTITLE12=Prairie Oyster - Just For Old Times Sake
TTITLE13=Martina McBride - My Baby Loves Me
TTITLE14=Aaron Tippin - Working Man's PH.D.
EXTD=
EXTT0=
EXTT1=
EXTT2=
EXTT3=
EXTT4=
EXTT5=
EXTT6=
EXTT7=
EXTT8=
EXTT9=
EXTT10=
EXTT11=
EXTT12=
EXTT13=
EXTT14=
PLAYORDER=
